<mxfile host="app.diagrams.net" modified="2022-04-13T09:12:28.454Z" agent="5.0 (Windows NT 10.0; Win64; x64) AppleWebKit/537.36 (KHTML, like Gecko) Chrome/100.0.4896.75 Safari/537.36" etag="TpMp-aPe29ZNLH0wand1" version="17.4.3" type="github">
  <diagram id="i-vSO50dyJmWn1IJDk2s" name="Page-1">
    <mxGraphModel dx="1422" dy="754" grid="1" gridSize="10" guides="1" tooltips="1" connect="1" arrows="1" fold="1" page="1" pageScale="1" pageWidth="827" pageHeight="1169" math="0" shadow="0">
      <root>
        <mxCell id="0" />
        <mxCell id="1" parent="0" />
        <mxCell id="j7XPHoPXmyksL3W44s_0-1" value="std::future" style="rounded=0;whiteSpace=wrap;html=1;fillColor=#f8cecc;strokeColor=#b85450;" vertex="1" parent="1">
          <mxGeometry x="80" y="240" width="120" height="40" as="geometry" />
        </mxCell>
        <mxCell id="j7XPHoPXmyksL3W44s_0-2" value="std::promise" style="rounded=0;whiteSpace=wrap;html=1;fillColor=#f8cecc;strokeColor=#b85450;" vertex="1" parent="1">
          <mxGeometry x="80" y="280" width="120" height="40" as="geometry" />
        </mxCell>
        <mxCell id="j7XPHoPXmyksL3W44s_0-3" value="std::future" style="rounded=0;whiteSpace=wrap;html=1;fillColor=#d5e8d4;strokeColor=#82b366;" vertex="1" parent="1">
          <mxGeometry x="80" y="440" width="120" height="40" as="geometry" />
        </mxCell>
        <mxCell id="j7XPHoPXmyksL3W44s_0-4" value="std::packaged_task" style="rounded=0;whiteSpace=wrap;html=1;fillColor=#d5e8d4;strokeColor=#82b366;" vertex="1" parent="1">
          <mxGeometry x="80" y="480" width="120" height="40" as="geometry" />
        </mxCell>
        <mxCell id="j7XPHoPXmyksL3W44s_0-5" value="callable object" style="rounded=0;whiteSpace=wrap;html=1;fillColor=#e1d5e7;strokeColor=#9673a6;" vertex="1" parent="1">
          <mxGeometry x="80" y="80" width="120" height="40" as="geometry" />
        </mxCell>
        <mxCell id="j7XPHoPXmyksL3W44s_0-6" value="callable object" style="rounded=0;whiteSpace=wrap;html=1;fillColor=#f8cecc;strokeColor=#b85450;" vertex="1" parent="1">
          <mxGeometry x="80" y="200" width="120" height="40" as="geometry" />
        </mxCell>
        <mxCell id="j7XPHoPXmyksL3W44s_0-7" value="callable object" style="rounded=0;whiteSpace=wrap;html=1;fillColor=#d5e8d4;strokeColor=#82b366;" vertex="1" parent="1">
          <mxGeometry x="80" y="400" width="120" height="40" as="geometry" />
        </mxCell>
        <mxCell id="j7XPHoPXmyksL3W44s_0-8" value="&lt;font style=&quot;font-size: 18px&quot;&gt;std::thread&lt;/font&gt;" style="ellipse;whiteSpace=wrap;html=1;fillColor=#f5f5f5;strokeColor=#666666;fontColor=#333333;" vertex="1" parent="1">
          <mxGeometry x="480" y="160" width="120" height="80" as="geometry" />
        </mxCell>
        <mxCell id="j7XPHoPXmyksL3W44s_0-9" value="&lt;font style=&quot;font-size: 18px&quot;&gt;std::async&lt;/font&gt;" style="ellipse;whiteSpace=wrap;html=1;fillColor=#ffe6cc;strokeColor=#d79b00;" vertex="1" parent="1">
          <mxGeometry x="480" y="360" width="120" height="80" as="geometry" />
        </mxCell>
        <mxCell id="j7XPHoPXmyksL3W44s_0-10" value="" style="endArrow=classic;html=1;rounded=0;exitX=1;exitY=0.5;exitDx=0;exitDy=0;entryX=0;entryY=0.5;entryDx=0;entryDy=0;fillColor=#e1d5e7;strokeColor=#9673a6;" edge="1" parent="1" source="j7XPHoPXmyksL3W44s_0-5" target="j7XPHoPXmyksL3W44s_0-8">
          <mxGeometry width="50" height="50" relative="1" as="geometry">
            <mxPoint x="300" y="140" as="sourcePoint" />
            <mxPoint x="350" y="90" as="targetPoint" />
          </mxGeometry>
        </mxCell>
        <mxCell id="j7XPHoPXmyksL3W44s_0-17" value="&lt;font style=&quot;font-size: 14px&quot;&gt;忽略返回值&lt;/font&gt;" style="edgeLabel;html=1;align=center;verticalAlign=middle;resizable=0;points=[];" vertex="1" connectable="0" parent="j7XPHoPXmyksL3W44s_0-10">
          <mxGeometry x="-0.1466" y="-1" relative="1" as="geometry">
            <mxPoint x="11" as="offset" />
          </mxGeometry>
        </mxCell>
        <mxCell id="j7XPHoPXmyksL3W44s_0-11" value="" style="endArrow=classic;html=1;rounded=0;exitX=1;exitY=0.5;exitDx=0;exitDy=0;entryX=0;entryY=0.5;entryDx=0;entryDy=0;fillColor=#e1d5e7;strokeColor=#9673a6;" edge="1" parent="1" source="j7XPHoPXmyksL3W44s_0-5" target="j7XPHoPXmyksL3W44s_0-9">
          <mxGeometry width="50" height="50" relative="1" as="geometry">
            <mxPoint x="270" y="340" as="sourcePoint" />
            <mxPoint x="320" y="290" as="targetPoint" />
          </mxGeometry>
        </mxCell>
        <mxCell id="j7XPHoPXmyksL3W44s_0-18" value="&lt;font color=&quot;#ea6b66&quot; style=&quot;font-size: 14px&quot;&gt;可以获取返回值&lt;/font&gt;" style="edgeLabel;html=1;align=center;verticalAlign=middle;resizable=0;points=[];" vertex="1" connectable="0" parent="j7XPHoPXmyksL3W44s_0-11">
          <mxGeometry x="-0.4036" y="1" relative="1" as="geometry">
            <mxPoint x="-14" y="-19" as="offset" />
          </mxGeometry>
        </mxCell>
        <mxCell id="j7XPHoPXmyksL3W44s_0-13" value="" style="endArrow=classic;html=1;rounded=0;exitX=1;exitY=0.5;exitDx=0;exitDy=0;entryX=0;entryY=0.5;entryDx=0;entryDy=0;fillColor=#f8cecc;strokeColor=#b85450;strokeWidth=3;" edge="1" parent="1" source="j7XPHoPXmyksL3W44s_0-1" target="j7XPHoPXmyksL3W44s_0-8">
          <mxGeometry width="50" height="50" relative="1" as="geometry">
            <mxPoint x="340" y="330" as="sourcePoint" />
            <mxPoint x="390" y="280" as="targetPoint" />
          </mxGeometry>
        </mxCell>
        <mxCell id="j7XPHoPXmyksL3W44s_0-14" value="" style="endArrow=classic;html=1;rounded=0;exitX=1;exitY=0.5;exitDx=0;exitDy=0;entryX=0;entryY=0.5;entryDx=0;entryDy=0;fillColor=#d5e8d4;strokeColor=#82b366;strokeWidth=3;" edge="1" parent="1" source="j7XPHoPXmyksL3W44s_0-3" target="j7XPHoPXmyksL3W44s_0-8">
          <mxGeometry width="50" height="50" relative="1" as="geometry">
            <mxPoint x="210" y="270" as="sourcePoint" />
            <mxPoint x="490" y="210" as="targetPoint" />
          </mxGeometry>
        </mxCell>
        <mxCell id="j7XPHoPXmyksL3W44s_0-15" value="" style="endArrow=classic;html=1;rounded=0;exitX=1;exitY=0.5;exitDx=0;exitDy=0;fillColor=#f8cecc;strokeColor=#b85450;strokeWidth=3;" edge="1" parent="1" source="j7XPHoPXmyksL3W44s_0-1">
          <mxGeometry width="50" height="50" relative="1" as="geometry">
            <mxPoint x="230" y="360" as="sourcePoint" />
            <mxPoint x="480" y="400" as="targetPoint" />
          </mxGeometry>
        </mxCell>
        <mxCell id="j7XPHoPXmyksL3W44s_0-16" value="" style="endArrow=classic;html=1;rounded=0;exitX=1;exitY=0.5;exitDx=0;exitDy=0;fillColor=#d5e8d4;strokeColor=#82b366;strokeWidth=3;" edge="1" parent="1" source="j7XPHoPXmyksL3W44s_0-3">
          <mxGeometry width="50" height="50" relative="1" as="geometry">
            <mxPoint x="310" y="480" as="sourcePoint" />
            <mxPoint x="480" y="400" as="targetPoint" />
          </mxGeometry>
        </mxCell>
      </root>
    </mxGraphModel>
  </diagram>
</mxfile>
